# xmcd
#
# Track frame offsets:
#	150
#	13430
#	25518
#	38684
#	54912
#	69146
#	82993
#	94201
#	109133
#	120712
#	132067
#	143087
#	156368
#
# Disc length: 2299 seconds
#
# Revision: 1
# Processed by: cddbd v1.5.2PL0 Copyright (c) Steve Scherf et al.
# Submitted via: audiograbber 1.83.01
#
DISCID=9f08f90d
DTITLE=Ron Kendricks - Ron Kendricks
DYEAR=2002
DGENRE=
TTITLE0=Games People Play
TTITLE1=Honey Dont
TTITLE2=I'd Really Love To See You Tonight
TTITLE3=Lookin For Love
TTITLE4=Woman, Sensuous Woman
TTITLE5=Statue Of A Fool
TTITLE6=Knock Three Times
TTITLE7=There Goes My Everything
TTITLE8=Six Days On The Road
TTITLE9=It's Only Make Believe
TTITLE10=Hello Walls
TTITLE11=Houston
TTITLE12=Feels So Right
EXTD=
EXTT0=
EXTT1=
EXTT2=
EXTT3=
EXTT4=
EXTT5=
EXTT6=
EXTT7=
EXTT8=
EXTT9=
EXTT10=
EXTT11=
EXTT12=
PLAYORDER=
